<?xml version="1.0" standalone="no"?>
<!DOCTYPE svg PUBLIC "-//W3C//DTD SVG 20010904//EN"
 "http://www.w3.org/TR/2001/REC-SVG-20010904/DTD/svg10.dtd">
<svg version="1.0" xmlns="http://www.w3.org/2000/svg"
 width="2048.000000pt" height="2048.000000pt" viewBox="0 0 2048.000000 2048.000000"
 preserveAspectRatio="xMidYMid meet">

<g transform="translate(0.000000,2048.000000) scale(0.100000,-0.100000)"
fill="#000000" stroke="none">
<path d="M9879 18870 c-24 -16 -55 -30 -69 -30 -29 -1 -104 -33 -114 -49 -4
-6 -20 -11 -35 -11 -28 0 -111 -52 -111 -69 0 -5 -12 -17 -27 -27 -22 -14 -45
-17 -119 -15 -175 4 -237 -51 -249 -220 -4 -46 -8 -91 -11 -99 -4 -15 -62 -56
-145 -103 -25 -14 -58 -45 -74 -69 -16 -24 -44 -62 -62 -85 -85 -107 -127
-248 -126 -418 0 -66 0 -210 -1 -320 -2 -408 4 -492 50 -685 19 -82 22 -106
12 -109 -29 -10 -67 -64 -78 -113 -15 -62 -7 -266 15 -376 37 -188 135 -422
231 -552 75 -103 164 -199 206 -222 21 -12 38 -29 38 -37 0 -40 -52 -261 -84
-354 -68 -203 -187 -407 -309 -529 -58 -58 -71 -67 -87 -58 -21 11 -85 1 -137
-22 -31 -14 -204 -161 -273 -233 -63 -66 -178 -160 -292 -238 -334 -231 -522
-436 -669 -729 -106 -211 -143 -334 -184 -603 -101 -676 -145 -869 -283 -1230
-27 -71 -68 -170 -91 -219 -69 -150 -84 -224 -60 -309 15 -55 75 -113 132
-129 l47 -12 1 -111 c1 -60 4 -141 8 -180 5 -47 7 -7 7 125 1 169 12 311 30
386 7 26 161 109 274 147 202 69 526 108 753 92 l102 -8 -72 -33 c-82 -38
-271 -104 -296 -104 -10 0 -17 -4 -17 -10 0 -13 -1 -14 102 16 149 43 268 95
399 173 l35 21 12 -72 c21 -140 94 -232 204 -258 41 -10 66 -25 109 -65 93
-85 193 -134 306 -150 l51 -7 -35 -85 c-55 -137 -107 -234 -172 -320 -219
-290 -604 -516 -1057 -618 -270 -60 -412 -37 -516 85 -31 36 -50 70 -106 190
l-12 25 6 -25 c13 -53 74 -168 114 -212 26 -30 66 -60 107 -80 62 -30 72 -32
172 -32 59 0 145 8 194 18 179 35 442 136 640 247 60 33 110 59 112 57 6 -6
64 -301 82 -418 14 -88 18 -175 18 -365 0 -221 -3 -263 -23 -362 -36 -177
-108 -369 -188 -495 -13 -21 -24 -41 -24 -46 0 -4 39 -27 86 -50 59 -30 84
-47 81 -57 -13 -33 -19 -336 -8 -430 31 -272 95 -483 364 -1205 166 -446 186
-519 194 -710 8 -187 -30 -679 -77 -982 -31 -195 -27 -376 11 -601 36 -217 63
-450 79 -684 14 -197 7 -256 -40 -380 -38 -98 -52 -172 -40 -213 5 -18 5 -39
1 -48 -5 -10 -21 -48 -36 -85 -51 -126 -151 -267 -374 -530 -41 -49 -145 -151
-232 -227 -205 -182 -286 -278 -336 -400 -29 -71 -29 -111 1 -158 33 -52 59
-74 153 -125 166 -91 278 -124 448 -134 269 -14 497 76 712 281 153 146 252
283 380 526 93 177 98 196 143 520 43 310 57 380 70 345 6 -14 8 -9 9 20 9
432 8 425 90 560 131 214 143 290 121 765 -6 118 -17 298 -25 400 -26 326 -17
531 36 780 43 200 127 448 206 605 l30 59 7 -39 c14 -73 51 -128 150 -219 184
-168 261 -331 273 -571 4 -89 1 -130 -16 -212 -38 -182 -26 -396 33 -598 32
-109 33 -183 6 -359 -11 -71 -20 -145 -20 -165 0 -45 31 -113 70 -158 17 -18
30 -39 30 -45 0 -6 3 -9 6 -5 4 3 25 -3 47 -15 22 -11 68 -22 101 -25 49 -4
71 -12 116 -43 91 -62 286 -155 440 -208 199 -69 232 -82 394 -164 265 -133
476 -214 666 -254 123 -27 347 -25 452 4 109 30 183 68 240 122 57 55 62 42
17 -49 -38 -76 -116 -155 -196 -200 -32 -18 -49 -30 -38 -26 87 27 204 136
252 233 25 51 28 68 28 153 -1 83 -4 102 -28 151 -34 69 -87 129 -196 225
-190 166 -445 303 -723 387 -117 36 -420 75 -645 83 l-183 6 0 32 c0 17 -13
85 -29 151 -30 119 -35 173 -76 714 -23 308 -20 434 25 955 30 344 65 634 131
1100 33 231 68 517 79 635 10 118 29 321 42 450 12 129 24 301 26 382 l3 147
96 37 96 37 -7 174 c-9 256 -37 503 -126 1123 -166 1156 -175 1375 -85 2017
13 94 31 200 40 235 9 34 23 99 31 143 7 44 23 123 35 175 l21 96 347 -2 c344
-1 345 -1 94 5 -139 4 -255 9 -258 12 -3 3 14 30 36 60 46 61 157 283 217 434
111 279 181 576 217 920 8 77 15 146 15 153 0 17 166 16 254 -3 132 -28 261
-88 393 -181 72 -52 83 -63 93 -101 22 -90 116 -265 148 -278 7 -2 2 10 -12
28 -13 17 -40 64 -59 102 -77 156 -98 288 -78 495 58 584 63 902 16 1135 -20
96 -84 223 -145 285 -54 55 -57 60 -37 60 41 0 249 131 233 147 -3 3 -24 -11
-48 -32 -24 -20 -76 -52 -116 -72 -137 -66 -272 -54 -336 30 -26 34 -26 35 -9
65 l17 30 30 -21 c20 -14 48 -21 85 -23 31 -2 45 -1 31 2 -91 16 -140 42 -140
72 0 9 -7 23 -15 32 -13 15 -14 25 -4 64 8 32 16 46 28 46 23 0 55 36 75 83
19 46 12 49 -10 5 -21 -41 -54 -78 -70 -78 -7 0 -15 15 -19 33 -11 58 -57 177
-66 171 -5 -3 0 -22 10 -42 26 -52 42 -115 43 -172 0 -53 -12 -81 -50 -122
-30 -32 -19 -38 13 -8 26 25 55 17 55 -14 0 -25 -49 -76 -97 -100 -40 -20
-105 -21 -147 -1 -54 26 -79 83 -78 179 1 44 8 114 16 154 21 98 19 112 -5 32
-29 -94 -36 -234 -15 -284 9 -21 13 -43 10 -48 -11 -17 -99 -1 -165 28 -65 29
-99 63 -99 100 0 12 -4 26 -10 29 -13 8 -13 -16 0 -49 9 -24 7 -26 -18 -26
-39 0 -83 49 -124 135 -28 60 -33 80 -33 145 1 73 2 78 73 213 40 77 72 144
72 150 0 11 -65 -105 -139 -248 -47 -91 -26 -212 59 -342 34 -52 71 -77 106
-72 11 1 61 -19 113 -44 92 -46 161 -60 176 -37 3 5 21 -2 41 -15 60 -41 162
-42 212 -2 9 7 17 4 29 -13 9 -13 25 -32 35 -42 10 -10 18 -20 18 -23 0 -12
-90 -26 -135 -20 -27 3 -221 49 -429 101 -209 52 -382 94 -385 93 -36 -4 795
-209 847 -209 23 0 61 7 86 15 34 12 51 13 72 4 16 -5 55 -9 88 -8 l60 3 58
-64 c138 -150 175 -315 165 -730 -3 -129 -14 -314 -23 -410 -9 -96 -17 -259
-18 -362 0 -104 -4 -188 -7 -188 -3 0 -18 14 -35 31 -41 43 -156 112 -245 148
-110 43 -217 63 -344 63 -97 1 -116 3 -160 26 -87 44 -247 94 -345 108 -245
34 -540 27 -827 -21 l-31 -6 20 53 c30 78 69 216 133 463 31 121 90 339 130
485 87 310 103 382 111 493 6 84 2 103 -52 279 l-17 58 54 107 c54 106 54 107
54 197 -1 50 -15 199 -33 331 -20 145 -29 241 -23 243 49 16 91 87 91 154 0
35 6 50 25 68 31 29 47 85 36 125 -6 24 -3 39 18 75 40 69 36 143 -11 242 -30
62 -47 84 -92 118 -30 23 -59 53 -64 68 -6 15 -13 36 -18 47 -6 18 -4 17 22
-5 15 -14 23 -18 17 -9 -27 35 -165 144 -219 173 -48 26 -60 37 -69 67 -19 69
-60 116 -128 148 -72 34 -82 44 -92 84 -6 23 -4 27 14 27 32 0 75 -25 105 -60
32 -38 34 -28 4 16 -27 40 -56 54 -108 54 -45 0 -61 17 -35 36 25 19 13 72
-27 113 -42 43 -92 68 -212 106 -89 28 -101 35 -125 71 -29 43 -92 84 -130 84
-13 0 -36 11 -53 25 -39 33 -69 39 -126 28 -34 -7 -56 -6 -77 3 -48 21 -149
17 -187 -6 -42 -25 -55 -25 -63 1 -10 32 -68 55 -108 42 -18 -5 -41 -6 -52 -2
-37 14 -62 9 -106 -21z m215 6 c32 -13 56 -50 42 -64 -7 -7 -116 49 -116 60 0
3 8 9 18 11 9 3 18 5 20 6 1 0 18 -5 36 -13z m286 -42 c0 -2 -7 -4 -15 -4 -8
0 -15 4 -15 10 0 5 7 7 15 4 8 -4 15 -8 15 -10z m187 -15 c25 -9 26 -11 10
-20 -13 -8 -26 -5 -50 10 -28 18 -29 21 -10 21 12 0 34 -5 50 -11z m-917 -64
c0 -2 -19 -14 -42 -25 l-43 -21 30 26 c27 22 55 33 55 20z m-212 -103 c9 -6
-1 -13 -30 -21 -91 -28 -180 -84 -222 -141 l-18 -25 5 44 c8 68 60 125 128
141 46 11 121 12 137 2z m1621 -96 c51 -27 71 -52 71 -90 0 -35 -13 -55 -25
-36 -4 6 -10 8 -14 5 -11 -6 -141 45 -141 55 0 10 46 -2 79 -20 13 -6 25 -9
28 -6 8 8 -65 38 -108 43 -26 4 -41 13 -53 35 -10 16 -15 32 -12 35 3 3 10 -5
15 -18 7 -17 10 -19 10 -6 1 23 3 23 82 -19 64 -34 107 -74 79 -74 -6 0 -8 -4
-5 -10 10 -16 25 -11 25 8 0 28 -59 78 -132 112 -38 18 -68 36 -68 40 0 10
119 -29 169 -54z m421 -541 l55 -35 -50 6 c-49 6 -75 24 -75 51 0 20 11 16 70
-22z m-2670 -61 c-15 -38 -50 -268 -50 -327 0 -33 -4 -46 -11 -41 -14 8 -4
160 17 254 16 72 44 154 50 147 3 -2 0 -17 -6 -33z m2732 10 c18 -5 68 -81 68
-103 0 -6 -36 16 -80 49 -44 33 -80 63 -80 67 0 5 57 -3 92 -13z m-22 -89 c7
-8 8 -15 2 -15 -5 0 -15 7 -22 15 -7 8 -8 15 -2 15 5 0 15 -7 22 -15z m81 -73
c-7 -2 -18 1 -23 6 -8 8 -4 9 13 5 13 -4 18 -8 10 -11z m145 -93 c19 -22 19
-22 -3 -10 -13 6 -23 16 -23 21 0 15 5 12 26 -11z m-631 -21 c15 -7 33 -25 42
-41 14 -28 14 -30 -19 -64 -37 -39 -97 -73 -127 -73 -11 0 -32 5 -46 10 l-27
10 42 42 c23 23 48 56 57 72 30 60 36 63 78 44z m-121 -60 c-35 -41 -41 -46
-75 -67 -35 -22 -123 -28 -163 -12 -16 6 -10 11 30 28 27 12 78 29 114 38 36
9 72 21 80 26 27 15 33 9 14 -13z m-531 -48 c35 -32 40 -42 31 -57 -13 -22
-52 -49 -81 -58 -23 -6 -23 -5 -23 74 0 96 9 101 73 41z m685 -22 c-8 -13 -37
-36 -63 -53 -42 -26 -59 -30 -137 -33 -59 -3 -88 -8 -88 -16 0 -6 24 -26 53
-44 28 -18 58 -36 65 -40 10 -7 10 -14 2 -33 -17 -38 1 -73 44 -86 46 -14 95
-3 157 36 45 28 51 29 79 17 l31 -13 -40 -11 c-21 -7 -41 -19 -44 -26 -3 -8
13 -42 35 -76 64 -95 143 -124 216 -80 l33 20 29 -21 c21 -16 37 -20 58 -16
25 5 31 2 36 -16 9 -34 7 -67 -4 -67 -5 0 -10 -4 -10 -10 0 -5 6 -7 13 -5 9 4
19 -50 41 -217 15 -123 30 -236 33 -252 4 -19 2 -27 -4 -23 -6 4 -24 -3 -39
-14 l-29 -21 28 26 c15 14 27 27 27 29 0 10 -32 17 -43 10 -7 -4 -26 -8 -43
-9 -20 0 -48 -14 -74 -34 -42 -33 -92 -69 -120 -84 -8 -5 3 10 25 33 22 24 54
50 70 58 17 9 25 18 17 20 -7 3 -34 -8 -60 -23 -26 -16 -53 -27 -61 -25 -17 3
-121 -67 -121 -82 0 -6 -3 -7 -7 -3 -4 3 11 24 32 46 45 47 29 54 -22 10 -18
-16 -38 -30 -42 -30 -18 0 -43 -54 -50 -106 -9 -64 3 -70 25 -14 19 48 29 48
13 1 -20 -56 -3 -44 51 38 46 71 104 131 126 131 5 0 -12 -21 -37 -47 -53 -55
-89 -105 -89 -124 0 -7 11 -2 26 12 18 17 23 19 18 6 -11 -30 14 -19 63 28 29
28 50 42 56 36 6 -6 -3 -16 -22 -26 -44 -22 -29 -38 17 -18 38 17 99 57 117
77 6 6 24 22 41 36 17 14 2 -3 -34 -36 -37 -36 -59 -65 -53 -68 6 -4 19 -2 30
4 11 5 33 10 48 10 33 0 91 39 110 73 11 20 12 18 13 -23 0 -30 -10 -66 -30
-107 l-29 -63 -37 25 c-42 28 -90 32 -188 14 -115 -21 -168 -42 -207 -79 l-38
-36 -7 66 c-4 36 -2 101 4 145 12 90 9 107 -8 46 -19 -73 -14 -225 14 -356 40
-191 56 -323 57 -461 0 -82 4 -122 9 -109 5 11 9 60 9 109 l1 89 32 -25 c18
-14 43 -45 55 -68 46 -87 21 -173 -75 -261 -99 -91 -173 -109 -267 -65 -70 32
-118 39 -179 25 -47 -10 -58 -9 -100 9 -35 16 -50 30 -61 56 -23 55 -17 94 30
208 5 13 2 15 -14 11 -39 -10 -102 -76 -168 -176 -38 -56 -110 -147 -162 -202
-92 -99 -145 -181 -139 -213 2 -10 14 5 30 39 16 35 59 92 113 150 48 52 121
144 162 206 40 62 90 126 110 142 40 33 51 34 34 2 -7 -11 -15 -41 -20 -66
-12 -65 4 -118 47 -156 l36 -32 100 6 c97 6 104 5 171 -23 100 -43 147 -41
221 9 l59 40 17 -47 c9 -26 17 -64 17 -84 1 -38 1 -38 -39 -38 -23 0 -83 -16
-135 -35 -91 -34 -101 -36 -242 -39 -131 -2 -446 -42 -503 -63 -8 -4 -23 -5
-32 -4 -34 4 -18 -15 40 -49 31 -18 67 -43 80 -54 12 -11 22 -16 22 -12 0 4 5
4 11 0 8 -4 7 -9 -2 -16 -11 -8 -10 -9 4 -4 21 7 49 -3 41 -15 -3 -5 3 -6 12
-2 11 4 15 3 10 -5 -3 -6 -1 -14 5 -18 8 -4 9 -3 5 4 -10 17 -2 15 73 -12 104
-37 160 -41 280 -16 110 22 169 47 213 87 l26 25 7 -66 c19 -177 -29 -234
-236 -276 -132 -28 -243 -24 -312 9 -53 26 -150 109 -142 121 3 5 -5 16 -17
24 -13 8 -31 30 -42 48 l-18 33 26 -30 c17 -20 24 -23 19 -11 -5 15 -3 17 8
11 8 -5 11 -5 6 1 -5 5 -12 9 -15 9 -18 1 -60 38 -71 62 -11 23 -10 29 5 40
10 7 13 13 8 13 -6 0 -15 -5 -20 -10 -7 -7 -18 6 -34 40 -22 48 -23 51 -7 92
23 58 14 59 -11 0 -27 -61 -36 -136 -24 -187 9 -38 10 -35 11 35 l2 75 38 -76
c79 -158 163 -252 269 -302 62 -30 74 -32 167 -31 125 2 243 25 314 61 73 37
103 93 103 186 0 35 -7 80 -15 99 -24 56 -10 102 43 144 52 41 90 98 90 135 0
15 -9 57 -20 93 l-21 66 34 43 c50 62 67 100 67 155 0 57 -38 126 -91 162 -19
13 -36 25 -38 27 -4 3 -28 183 -24 183 1 0 32 -7 70 -16 37 -9 87 -14 111 -11
42 5 82 30 82 51 0 6 -5 3 -10 -6 -20 -34 -74 -42 -169 -23 l-88 17 -21 101
c-12 55 -20 103 -18 105 3 2 15 -3 28 -11 43 -28 132 -47 234 -49 83 -2 106 1
128 16 15 10 29 16 31 14 2 -2 13 -32 25 -68 15 -42 24 -99 27 -160 5 -91 2
-105 -56 -330 -33 -129 -67 -260 -75 -290 -9 -30 -47 -179 -86 -330 -121 -470
-157 -577 -233 -690 -76 -113 -155 -170 -277 -200 -170 -40 -362 -21 -597 61
-239 84 -441 209 -622 383 -259 251 -389 524 -392 826 -1 91 -2 100 -11 65
-21 -84 6 -297 52 -423 123 -330 440 -643 817 -807 l72 -32 -21 -43 c-46 -92
-137 -127 -307 -117 -330 20 -669 102 -881 214 -67 36 -207 127 -249 163 l-23
20 73 78 c201 211 338 512 384 845 4 30 11 47 20 47 17 0 45 38 45 60 -1 11
-6 9 -19 -7 -11 -13 -30 -23 -44 -23 -57 0 -192 144 -290 309 -91 152 -160
352 -187 536 -12 90 -13 271 0 295 5 10 35 32 66 49 l56 32 69 -57 c90 -73
161 -152 218 -239 46 -71 141 -272 141 -299 0 -20 39 -46 67 -46 18 0 23 6 23
24 0 14 5 37 12 53 6 15 10 35 9 44 -1 9 9 21 21 27 18 8 19 11 6 11 -25 1
-22 15 5 34 19 14 20 16 4 16 -14 1 -9 10 23 41 44 42 48 60 10 40 -38 -20
-34 -2 4 21 44 26 48 46 5 23 -17 -8 -29 -11 -25 -6 3 5 19 15 36 22 16 7 30
16 30 21 0 12 -6 11 -43 -6 l-32 -16 24 21 c14 12 37 24 53 27 15 3 28 9 28
13 0 11 -48 22 -63 15 -7 -3 -1 2 12 12 14 10 34 26 45 35 l21 17 -23 1 c-13
0 -32 -5 -44 -11 -11 -6 -22 -8 -25 -5 -3 2 19 17 48 31 39 20 49 29 38 36
-11 7 -11 9 4 9 9 0 17 2 17 4 0 2 3 12 6 21 6 14 1 15 -32 10 -37 -7 -38 -6
-19 9 11 8 24 16 29 16 17 0 114 90 136 124 11 19 30 78 41 133 26 119 22 240
-9 321 l-20 52 29 -24 c91 -77 232 -46 304 67 24 38 35 47 59 47 50 0 105 22
140 56 l33 32 54 -19 c30 -10 64 -18 77 -19 98 -1 200 74 230 169 17 58 73
123 86 102 12 -19 100 -32 146 -22 39 9 51 8 86 -11 41 -21 43 -21 87 -4 25 9
60 32 79 51 38 40 46 44 26 13z m202 -25 c-1 -5 -7 -19 -15 -33 l-14 -25 -1
33 c0 22 5 32 15 32 8 0 15 -3 15 -7z m60 -73 c0 -33 -44 -114 -72 -134 -17
-12 -36 -12 -76 0 -9 3 -3 17 21 46 19 24 47 67 61 96 26 52 28 53 47 36 10
-9 19 -29 19 -44z m-900 26 c0 -26 -51 -76 -91 -87 -45 -14 -50 -11 -43 18 4
14 17 23 40 28 19 3 46 17 61 30 33 29 33 29 33 11z m110 -42 c-35 -94 -111
-149 -200 -147 -30 0 -68 6 -84 12 l-29 12 23 24 c16 17 34 25 57 25 19 0 48
7 66 15 l32 16 -23 -20 c-13 -12 -43 -26 -65 -33 -46 -13 -70 -28 -45 -28 69
0 230 88 259 141 15 29 22 17 9 -17z m498 -122 c60 -5 63 -6 41 -18 -49 -28
-127 -46 -149 -34 -20 11 -26 43 -14 75 6 14 9 14 32 -1 14 -9 54 -19 90 -22z
m666 22 c3 -9 6 -25 6 -37 0 -25 -35 -87 -49 -87 -11 0 -51 66 -51 83 0 10 62
53 81 56 4 1 10 -6 13 -15z m-200 -53 c3 -14 8 -51 11 -81 4 -30 9 -63 11 -72
10 -36 -76 -49 -89 -14 -3 8 3 32 14 53 16 30 19 50 15 94 -5 53 -4 57 14 52
10 -3 21 -17 24 -32z m-1527 -8 c-3 -10 -5 -4 -5 12 0 17 2 24 5 18 2 -7 2
-21 0 -30z m1463 -18 c0 -31 -7 -69 -15 -85 -36 -70 -140 -99 -187 -52 l-22
22 32 0 c73 0 155 65 168 135 10 54 24 42 24 -20z m126 46 c-3 -5 1 -11 8 -14
8 -3 17 -3 19 1 2 4 2 2 1 -5 -2 -7 1 -15 5 -17 10 -7 2 -56 -10 -56 -4 0 -17
10 -29 22 -11 12 -20 18 -20 13 0 -5 12 -21 26 -36 26 -27 26 -27 8 -58 -10
-17 -22 -31 -25 -31 -8 0 -18 83 -17 148 0 35 4 42 20 42 10 0 17 -4 14 -9z
m-1426 -20 c0 -13 -81 -51 -108 -51 -22 0 -27 15 -16 44 5 12 21 16 65 16 32
0 59 -4 59 -9z m1500 -73 c0 -5 -7 -8 -15 -8 -17 0 -18 2 -9 25 5 13 8 14 15
3 5 -7 9 -16 9 -20z m10 -57 c0 -58 -62 -153 -89 -136 -16 9 -13 81 3 94 8 6
19 25 26 41 9 21 19 30 36 30 20 0 24 -5 24 -29z m-1925 -69 c-3 -3 -11 0 -18
7 -9 10 -8 11 6 5 10 -3 15 -9 12 -12z m-185 -522 c-25 -22 -49 -40 -53 -40
-9 0 84 79 93 79 3 0 -15 -18 -40 -39z m1928 -120 c-29 -33 -54 -60 -55 -60
-1 0 0 8 4 18 6 15 4 15 -18 -2 -13 -11 -1 3 28 31 44 43 79 72 91 73 2 0 -21
-27 -50 -60z m84 -23 c-12 -13 -22 -28 -22 -33 0 -5 -9 -15 -20 -21 -14 -10
-12 -2 11 32 17 25 35 45 41 45 7 0 2 -10 -10 -23z m-282 -71 c0 -2 -8 -10
-17 -17 -16 -13 -17 -12 -4 4 13 16 21 21 21 13z m236 -121 c28 -11 35 -19 29
-32 -3 -10 -11 -38 -17 -63 -6 -25 -12 -51 -14 -58 -10 -38 -126 -52 -254 -32
-69 11 -152 47 -158 68 -2 7 13 29 34 50 39 37 39 37 42 12 8 -69 40 -100 103
-100 64 0 103 51 97 126 l-3 44 53 0 c29 0 69 -7 88 -15z m-222 -66 c-3 -5
-10 -7 -15 -3 -5 3 -7 10 -3 15 3 5 10 7 15 3 5 -3 7 -10 3 -15z m-84 -1078
c0 -6 -10 -17 -22 -25 -12 -9 -19 -16 -14 -16 15 0 -53 -50 -88 -65 -39 -17
-48 -26 -16 -18 26 7 27 -27 3 -67 -51 -88 -333 -144 -478 -95 -54 18 -307
146 -301 152 2 2 84 -5 182 -17 218 -24 399 -26 495 -4 82 19 88 29 8 13 -75
-15 -276 -13 -453 5 -151 16 -196 26 -115 26 25 0 94 10 155 21 73 15 155 22
250 24 78 1 147 6 154 10 7 4 49 21 94 36 82 28 146 37 146 20z m-985 -1941
c51 -56 5 -139 -171 -314 -61 -61 -137 -146 -169 -190 -60 -82 -185 -282 -185
-297 0 -5 -10 -9 -22 -10 -22 0 -22 -1 2 -10 34 -14 68 -6 150 35 152 77 376
235 565 400 120 105 189 146 245 146 49 0 72 -27 78 -89 3 -38 -1 -61 -20
-103 -29 -61 -134 -179 -211 -235 -29 -21 -120 -92 -202 -158 -83 -66 -168
-133 -190 -150 -64 -50 -244 -205 -252 -218 -3 -7 2 -5 13 4 161 136 235 194
263 207 33 16 33 16 57 -11 45 -53 57 -153 25 -222 -30 -66 -107 -120 -229
-160 -29 -9 -51 -19 -49 -21 6 -6 176 56 183 67 22 36 74 -32 74 -97 0 -53
-19 -77 -128 -157 -108 -81 -135 -109 -260 -278 -196 -264 -303 -332 -591
-378 -83 -13 -140 -42 -190 -96 l-41 -44 -52 9 c-70 13 -183 70 -235 118 -40
37 -42 41 -33 73 15 51 12 157 -5 224 -17 65 -63 144 -102 175 -24 18 -24 19
-4 30 34 17 163 131 221 193 110 118 160 218 191 381 43 228 64 269 211 412
114 112 195 180 453 379 155 120 357 296 380 331 40 61 192 96 230 54z"/>
<path d="M10278 16505 c-17 -10 -29 -11 -33 -5 -9 14 -28 12 -22 -2 3 -10 -8
-12 -41 -9 -31 2 -42 0 -38 -8 4 -6 23 -11 42 -11 19 0 34 -4 34 -9 0 -19 -18
-21 -55 -5 -20 8 -40 12 -44 8 -3 -4 0 -9 7 -11 26 -10 0 -21 -28 -13 -32 9
-54 -6 -23 -16 47 -17 106 -45 101 -49 -2 -2 -23 5 -46 16 -46 23 -136 29
-155 10 -8 -8 9 -11 64 -13 l74 -1 -75 -7 c-86 -8 -122 -18 -114 -31 3 -5 -8
-14 -26 -20 -17 -6 -37 -24 -46 -40 -8 -16 -20 -29 -26 -29 -8 0 -8 -3 -2 -9
5 -6 26 -5 54 3 64 18 80 26 80 42 0 8 18 16 50 20 84 11 54 31 -40 26 -23 -1
-23 -1 -5 8 11 5 66 6 123 3 78 -4 102 -3 102 7 0 8 8 10 25 6 39 -10 29 9
-15 29 -22 10 -38 20 -36 23 3 2 37 -11 75 -30 56 -28 71 -32 75 -21 9 22 9
22 -44 45 -27 12 -48 23 -46 25 7 8 80 -28 128 -63 28 -19 53 -33 56 -30 7 8
-36 53 -68 73 -31 18 -69 66 -45 57 8 -3 15 -9 15 -13 0 -3 20 -19 45 -34 24
-16 47 -37 50 -48 4 -10 15 -24 25 -29 15 -8 20 -6 25 10 3 11 3 25 0 32 -4 7
1 4 9 -6 9 -11 16 -28 16 -38 0 -24 14 -23 34 5 l17 22 -5 -22 c-3 -16 1 -23
10 -23 8 0 19 -10 23 -22 9 -23 9 -23 20 5 13 34 25 36 17 3 -6 -26 8 -46 17
-24 4 10 8 10 15 -1 8 -11 10 -11 14 0 4 11 9 10 23 -5 18 -17 19 -17 37 6 29
36 40 69 39 117 0 47 -21 85 -21 41 l-1 -25 -15 28 c-18 33 -40 37 -29 5 4
-13 9 -43 10 -68 2 -39 1 -40 -2 -5 -6 51 -23 70 -68 73 -25 2 -45 12 -61 30
l-25 27 6 -38 6 -38 -20 20 c-31 31 -44 26 -26 -9 8 -16 15 -37 15 -47 0 -10
-9 1 -19 23 -19 41 -86 103 -98 90 -4 -3 3 -13 15 -21 11 -9 31 -30 44 -48
l23 -32 -40 31 c-34 26 -118 75 -127 74 -2 -1 -15 -7 -30 -15z m61 -26 c34
-28 23 -30 -24 -3 -28 17 -34 24 -20 24 11 -1 31 -10 44 -21z m291 -119 l-11
-25 6 25 c2 14 5 36 6 50 l2 25 4 -25 c2 -14 -1 -37 -7 -50z m-53 8 c-3 -7 -5
-2 -5 12 0 14 2 19 5 13 2 -7 2 -19 0 -25z"/>
<path d="M10757 16404 c-2 -23 -14 -61 -26 -84 -25 -48 -22 -57 18 -58 48 -1
75 40 67 101 -9 62 -14 74 -36 80 -15 4 -19 -3 -23 -39z m30 -26 c-3 -7 -5 -2
-5 12 0 14 2 19 5 13 2 -7 2 -19 0 -25z m-17 -46 c0 -5 -7 -17 -15 -28 -14
-18 -14 -17 -4 9 12 27 19 34 19 19z"/>
<path d="M10887 16355 c-2 -25 -16 -63 -31 -85 -14 -22 -26 -44 -26 -50 0 -5
18 -10 39 -10 31 0 46 7 70 31 30 30 36 49 32 99 -3 36 -21 50 -21 18 0 -15
-11 -39 -23 -54 l-24 -27 5 55 c5 67 -13 88 -21 23z"/>
<path d="M10830 16355 c0 -38 -24 -95 -40 -95 -6 0 -10 -4 -10 -10 0 -18 31
-10 55 15 25 24 33 73 19 109 -11 28 -24 17 -24 -19z"/>
<path d="M8847 16238 c-61 -47 -41 -221 40 -340 51 -74 222 -271 245 -283 15
-7 23 -5 33 9 15 20 9 48 -32 144 -25 60 -26 67 -15 121 21 101 17 123 -32
178 -24 26 -47 45 -51 41 -4 -4 6 -19 23 -33 37 -31 56 -84 48 -133 -19 -105
-18 -110 8 -168 34 -74 34 -104 2 -104 -17 0 -36 14 -63 48 -21 26 -61 74 -89
107 -66 77 -97 128 -117 190 -22 69 -28 124 -19 165 7 33 11 35 57 42 27 4 56
3 67 -3 10 -5 18 -7 18 -5 0 10 -59 36 -83 36 -13 0 -31 -6 -40 -12z"/>
<path d="M10237 16219 c-38 -11 -83 -27 -100 -35 -50 -25 -167 -107 -162 -112
3 -3 24 9 48 26 46 35 130 82 147 82 5 0 10 -9 10 -20 0 -61 66 -120 133 -120
53 0 72 13 91 60 19 47 20 83 5 112 -10 19 -9 20 23 13 75 -17 153 -76 146
-112 -2 -10 -20 -29 -41 -42 -20 -13 -36 -26 -34 -28 2 -1 28 5 58 15 39 14
55 24 57 39 4 28 -52 82 -120 116 -66 33 -158 35 -261 6z m83 -69 c0 -5 -7
-10 -15 -10 -8 0 -15 5 -15 10 0 6 7 10 15 10 8 0 15 -4 15 -10z"/>
<path d="M10061 16086 c14 -15 186 -76 226 -80 l48 -6 -50 13 c-27 7 -85 27
-127 45 -68 28 -110 40 -97 28z"/>
<path d="M10425 16020 c-13 -6 -15 -9 -5 -9 8 0 22 4 30 9 18 12 2 12 -25 0z"/>
<path d="M9952 16008 c6 -16 160 -103 228 -129 90 -34 169 -45 233 -30 53 12
155 67 144 78 -3 3 -19 -4 -36 -16 -116 -83 -280 -63 -484 57 -49 28 -87 47
-85 40z"/>
<path d="M11129 14843 c-13 -16 -12 -17 4 -4 16 13 21 21 13 21 -2 0 -10 -8
-17 -17z"/>
<path d="M11108 14816 c3 -5 -2 -6 -12 -3 -10 4 -15 3 -11 -4 4 -5 16 -7 27
-3 13 4 24 1 29 -7 6 -10 8 -8 7 6 -1 14 -9 20 -24 20 -12 0 -20 -4 -16 -9z"/>
<path d="M10918 14763 c7 -3 16 -2 19 1 4 3 -2 6 -13 5 -11 0 -14 -3 -6 -6z"/>
<path d="M10647 14749 c7 -7 15 -10 18 -7 3 3 -2 9 -12 12 -14 6 -15 5 -6 -5z"/>
<path d="M10714 14749 c-3 -5 9 -9 25 -9 17 0 31 2 31 4 0 8 -51 13 -56 5z"/>
<path d="M10958 14748 c5 -5 16 -8 23 -6 8 3 3 7 -10 11 -17 4 -21 3 -13 -5z"/>
<path d="M10470 14723 c12 -25 27 -29 50 -12 12 8 10 9 -8 4 -16 -5 -28 -1
-38 12 -14 17 -14 16 -4 -4z"/>
<path d="M11135 14719 c-4 -6 -5 -12 -2 -15 2 -3 7 2 10 11 7 17 1 20 -8 4z"/>
<path d="M10544 14665 c-4 -8 -1 -22 6 -30 8 -9 8 -15 2 -15 -6 0 -20 12 -32
28 -15 19 -18 21 -10 5 11 -23 48 -53 65 -53 5 0 3 5 -5 10 -8 5 -11 10 -6 10
5 0 3 7 -4 15 -7 8 -10 22 -6 30 3 8 3 15 0 15 -2 0 -7 -7 -10 -15z"/>
<path d="M11060 14610 c-8 -5 -10 -10 -5 -10 6 0 17 5 25 10 8 5 11 10 5 10
-5 0 -17 -5 -25 -10z"/>
<path d="M10620 14580 c-9 -6 -10 -10 -3 -10 6 0 15 5 18 10 8 12 4 12 -15 0z"/>
<path d="M11235 15080 c-3 -5 -13 -7 -23 -4 -10 4 -13 2 -7 -3 6 -4 12 -11 15
-15 3 -4 11 2 18 12 7 11 10 20 8 20 -3 0 -7 -4 -11 -10z"/>
<path d="M11186 15042 c-3 -5 1 -9 9 -9 8 0 12 4 9 9 -3 4 -7 8 -9 8 -2 0 -6
-4 -9 -8z"/>
<path d="M11123 15008 c-1 -11 1 -16 5 -12 4 5 11 12 15 15 5 3 2 9 -5 12 -9
3 -14 -3 -15 -15z"/>
<path d="M11163 15015 c0 -8 4 -12 9 -9 5 3 6 10 3 15 -9 13 -12 11 -12 -6z"/>
<path d="M10940 15006 c0 -2 14 -6 30 -8 17 -3 30 -1 30 4 0 4 -13 8 -30 8
-16 0 -30 -2 -30 -4z"/>
<path d="M10710 14980 c-8 -5 -10 -10 -5 -10 6 0 17 5 25 10 8 5 11 10 5 10
-5 0 -17 -5 -25 -10z"/>
<path d="M10558 14973 c7 -3 16 -2 19 1 4 3 -2 6 -13 5 -11 0 -14 -3 -6 -6z"/>
<path d="M9311 12075 c-1 -41 20 -85 41 -85 6 0 3 9 -7 20 -10 12 -22 40 -26
63 l-6 42 -2 -40z"/>
<path d="M9455 11795 c5 -43 26 -66 84 -91 50 -23 48 -9 -3 15 -52 26 -66 40
-77 84 -8 30 -8 30 -4 -8z"/>
<path d="M9627 11513 c-4 -3 -7 -24 -7 -45 0 -38 26 -78 51 -78 7 0 -1 12 -16
26 -24 22 -27 31 -22 65 5 41 5 43 -6 32z"/>
<path d="M12340 16750 c-23 -19 -46 -29 -68 -30 -45 0 -86 -23 -113 -62 -21
-31 -20 -30 24 10 33 30 55 42 77 42 16 0 30 -2 30 -4 0 -2 -11 -24 -25 -47
-14 -24 -25 -51 -25 -59 0 -8 14 10 31 40 16 30 49 74 72 98 48 49 46 55 -3
12z"/>
<path d="M12442 16750 c20 -11 69 -50 110 -88 96 -88 122 -104 262 -152 346
-119 580 -307 764 -613 113 -187 192 -397 343 -909 40 -137 74 -246 76 -244 4
4 -5 36 -87 321 -193 673 -325 931 -605 1183 -128 116 -351 239 -510 283 -106
28 -123 38 -220 124 -82 73 -141 115 -160 115 -5 -1 7 -10 27 -20z"/>
<path d="M12436 16529 c-14 -17 -33 -55 -42 -85 -8 -30 -33 -98 -55 -152 -47
-115 -79 -225 -78 -267 0 -20 5 -11 14 30 11 53 75 236 137 395 11 30 32 67
46 83 14 15 21 27 15 27 -6 0 -23 -14 -37 -31z"/>
<path d="M12654 16425 c-24 -18 -7 -19 26 0 16 9 19 14 9 15 -8 0 -24 -7 -35
-15z"/>
<path d="M12012 16365 c-17 -37 -14 -45 4 -12 9 16 14 31 11 33 -2 2 -9 -7
-15 -21z"/>
<path d="M11937 16176 c-17 -63 92 -221 171 -247 17 -6 38 -9 45 -6 6 2 -7 9
-29 16 -54 15 -83 38 -128 104 -27 39 -40 70 -45 108 -6 49 -7 51 -14 25z"/>
<path d="M11869 16145 c-14 -8 -33 -25 -41 -37 -18 -27 -36 -102 -19 -78 6 8
11 22 11 31 0 25 38 68 74 84 17 7 24 14 16 14 -8 0 -27 -6 -41 -14z"/>
<path d="M11811 15988 c-1 -9 9 -27 22 -40 12 -13 17 -17 10 -8 -7 8 -16 27
-22 40 -6 17 -10 19 -10 8z"/>
<path d="M14001 14720 c0 -8 4 -24 9 -35 5 -13 9 -14 9 -5 0 8 -4 24 -9 35 -5
13 -9 14 -9 5z"/>
<path d="M14201 14048 c-1 -4 13 -60 29 -125 48 -187 98 -411 111 -501 11 -82
8 -268 -6 -307 -5 -15 -4 -17 3 -5 6 8 15 50 21 93 13 92 3 197 -35 387 -36
180 -120 492 -123 458z"/>
<path d="M13458 13555 c77 -112 334 -291 560 -390 132 -58 108 -33 -32 34
-186 88 -352 200 -485 325 -38 36 -56 49 -43 31z"/>
<path d="M14304 13048 c-25 -57 -97 -127 -166 -163 -31 -16 -55 -31 -53 -33 7
-8 103 49 145 86 42 36 108 137 98 148 -3 2 -13 -15 -24 -38z"/>
<path d="M14040 12840 c-8 -5 -10 -10 -5 -10 6 0 17 5 25 10 8 5 11 10 5 10
-5 0 -17 -5 -25 -10z"/>
<path d="M13728 12753 c7 -3 16 -2 19 1 4 3 -2 6 -13 5 -11 0 -14 -3 -6 -6z"/>
<path d="M13610 12735 c-30 -7 -46 -13 -35 -13 11 -1 47 5 80 12 33 8 49 14
35 14 -14 0 -50 -6 -80 -13z"/>
<path d="M13518 12713 c6 -2 18 -2 25 0 6 3 1 5 -13 5 -14 0 -19 -2 -12 -5z"/>
<path d="M13468 12703 c6 -2 18 -2 25 0 6 3 1 5 -13 5 -14 0 -19 -2 -12 -5z"/>
<path d="M13418 12693 c6 -2 18 -2 25 0 6 3 1 5 -13 5 -14 0 -19 -2 -12 -5z"/>
<path d="M13368 12683 c7 -3 16 -2 19 1 4 3 -2 6 -13 5 -11 0 -14 -3 -6 -6z"/>
<path d="M12848 12603 c6 -2 18 -2 25 0 6 3 1 5 -13 5 -14 0 -19 -2 -12 -5z"/>
<path d="M12738 12593 c12 -2 32 -2 45 0 12 2 2 4 -23 4 -25 0 -35 -2 -22 -4z"/>
<path d="M12613 12583 c15 -2 37 -2 50 0 12 2 0 4 -28 4 -27 0 -38 -2 -22 -4z"/>
<path d="M6942 10205 c0 -16 2 -22 5 -12 2 9 2 23 0 30 -3 6 -5 -1 -5 -18z"/>
<path d="M10852 3440 c0 -14 2 -19 5 -12 2 6 2 18 0 25 -3 6 -5 1 -5 -13z"/>
<path d="M10863 3365 c0 -22 2 -30 4 -17 2 12 2 30 0 40 -3 9 -5 -1 -4 -23z"/>
<path d="M10875 3275 c3 -27 15 -70 28 -95 22 -42 95 -110 119 -110 7 0 -9 13
-33 30 -52 34 -83 83 -104 166 l-15 59 5 -50z"/>
<path d="M11403 3073 c9 -2 23 -2 30 0 6 3 -1 5 -18 5 -16 0 -22 -2 -12 -5z"/>
<path d="M11324 3064 c-7 -3 -56 -9 -110 -14 l-99 -9 100 5 c93 4 207 22 145
22 -14 0 -30 -2 -36 -4z"/>
<path d="M11078 3053 c7 -3 16 -2 19 1 4 3 -2 6 -13 5 -11 0 -14 -3 -6 -6z"/>
<path d="M11784 3018 c10 -7 66 -48 125 -90 103 -75 225 -150 266 -164 11 -3
-14 14 -56 38 -42 25 -128 81 -190 125 -63 44 -125 85 -139 92 -21 10 -22 9
-6 -1z"/>
<path d="M12210 2750 c8 -5 20 -10 25 -10 6 0 3 5 -5 10 -8 5 -19 10 -25 10
-5 0 -3 -5 5 -10z"/>
<path d="M9831 2734 c0 -11 3 -14 6 -6 3 7 2 16 -1 19 -3 4 -6 -2 -5 -13z"/>
<path d="M12368 2703 c7 -3 16 -2 19 1 4 3 -2 6 -13 5 -11 0 -14 -3 -6 -6z"/>
<path d="M12958 2703 c7 -3 16 -2 19 1 4 3 -2 6 -13 5 -11 0 -14 -3 -6 -6z"/>
<path d="M9842 2680 c0 -14 2 -19 5 -12 2 6 2 18 0 25 -3 6 -5 1 -5 -13z"/>
<path d="M12428 2693 c7 -3 16 -2 19 1 4 3 -2 6 -13 5 -11 0 -14 -3 -6 -6z"/>
<path d="M12918 2693 c7 -3 16 -2 19 1 4 3 -2 6 -13 5 -11 0 -14 -3 -6 -6z"/>
<path d="M12858 2683 c6 -2 18 -2 25 0 6 3 1 5 -13 5 -14 0 -19 -2 -12 -5z"/>
<path d="M9852 2615 c0 -16 2 -22 5 -12 2 9 2 23 0 30 -3 6 -5 -1 -5 -18z"/>
<path d="M9867 2495 c3 -49 7 -92 9 -94 7 -8 3 94 -6 139 -6 32 -7 18 -3 -45z"/>
<path d="M9877 2238 c-6 -170 -31 -312 -76 -435 -15 -43 -31 -87 -35 -98 -5
-13 -2 -11 8 5 23 37 72 194 91 290 15 80 34 390 23 390 -3 0 -8 -69 -11 -152z"/>
<path d="M9438 1246 c-102 -97 -193 -160 -320 -222 -99 -48 -85 -50 19 -4 121
55 252 152 352 263 24 26 42 47 40 47 -2 -1 -43 -38 -91 -84z"/>
<path d="M7960 1006 c0 -16 30 -63 57 -88 33 -31 73 -48 111 -47 20 0 16 3
-18 13 -59 15 -88 36 -122 87 -15 23 -28 39 -28 35z"/>
<path d="M8858 933 c6 -2 18 -2 25 0 6 3 1 5 -13 5 -14 0 -19 -2 -12 -5z"/>
<path d="M8808 923 c6 -2 18 -2 25 0 6 3 1 5 -13 5 -14 0 -19 -2 -12 -5z"/>
<path d="M8758 913 c7 -3 16 -2 19 1 4 3 -2 6 -13 5 -11 0 -14 -3 -6 -6z"/>
<path d="M8698 903 c7 -3 16 -2 19 1 4 3 -2 6 -13 5 -11 0 -14 -3 -6 -6z"/>
<path d="M8618 893 c7 -3 16 -2 19 1 4 3 -2 6 -13 5 -11 0 -14 -3 -6 -6z"/>
<path d="M8508 883 c6 -2 18 -2 25 0 6 3 1 5 -13 5 -14 0 -19 -2 -12 -5z"/>
</g>
</svg>
